<?xml version="1.0" standalone="no"?><!DOCTYPE svg PUBLIC "-//W3C//DTD SVG 1.1//EN" "http://www.w3.org/Graphics/SVG/1.1/DTD/svg11.dtd"><svg t="1609231931465" class="icon" viewBox="0 0 1024 1024" version="1.1" xmlns="http://www.w3.org/2000/svg" p-id="2700" xmlns:xlink="http://www.w3.org/1999/xlink" width="48" height="48"><defs><style type="text/css"></style></defs><path d="M512 87.04c234.7008 0 424.96 190.2592 424.96 424.96s-190.2592 424.96-424.96 424.96-424.96-190.2592-424.96-424.96 190.2592-424.96 424.96-424.96z m0 112.64c-172.4928 0-312.32 139.8272-312.32 312.32s139.8272 312.32 312.32 312.32 312.32-139.8272 312.32-312.32-139.8272-312.32-312.32-312.32z" fill="#47B5FF" p-id="2701"></path><path d="M455.68 307.2h112.64v307.2H455.68z" fill="#47B5FF" p-id="2702"></path><path d="M734.48448 498.57024l-19.5584 110.9248-302.53056-53.34528 19.5584-110.9248z" fill="#47B5FF" p-id="2703"></path><path d="M455.68 449.408l112.64 19.86048v114.37568l-112.64-19.86048V449.408z" fill="#067EDF" p-id="2704"></path></svg>